HIERARCHY
ROOT Hips
{
	OFFSET 0.00000 0.00000 0.00000
	CHANNELS 6 Xposition Yposition Zposition Zrotation Yrotation Xrotation 
	JOINT LHipJoint
	{
		OFFSET 0 0 0
		CHANNELS 3 Zrotation Yrotation Xrotation
		JOINT LeftUpLeg
		{
			OFFSET 1.37959 -1.78713 0.86582
			CHANNELS 3 Zrotation Yrotation Xrotation
			JOINT LeftLeg
			{
				OFFSET 2.54611 -6.99539 0.00000
				CHANNELS 3 Zrotation Yrotation Xrotation
				JOINT LeftFoot
				{
					OFFSET 2.59951 -7.14211 0.00000
					CHANNELS 3 Zrotation Yrotation Xrotation
					JOINT LeftToeBase
					{
						OFFSET 0.18493 -0.50810 1.96120
						CHANNELS 3 Zrotation Yrotation Xrotation
						End Site
						{
							OFFSET 0.00000 -0.00000 1.02054
						}
					}
				}
			}
		}
	}
	JOINT RHipJoint
	{
		OFFSET 0 0 0
		CHANNELS 3 Zrotation Yrotation Xrotation
		JOINT RightUpLeg
		{
			OFFSET -1.33564 -1.78713 0.86582
			CHANNELS 3 Zrotation Yrotation Xrotation
			JOINT RightLeg
			{
				OFFSET -2.52705 -6.94302 0.00000
				CHANNELS 3 Zrotation Yrotation Xrotation
				JOINT RightFoot
				{
					OFFSET -2.55964 -7.03257 0.00000
					CHANNELS 3 Zrotation Yrotation Xrotation
					JOINT RightToeBase
					{
						OFFSET -0.25804 -0.70896 2.12109
						CHANNELS 3 Zrotation Yrotation Xrotation
						End Site
						{
							OFFSET -0.00000 -0.00000 1.11821
						}
					}
				}
			}
		}
	}
	JOINT LowerBack
	{
		OFFSET 0 0 0
		CHANNELS 3 Zrotation Yrotation Xrotation
		JOINT Spine
		{
			OFFSET -0.02031 2.24248 -0.18900
			CHANNELS 3 Zrotation Yrotation Xrotation
			JOINT Spine1
			{
				OFFSET 0.08342 2.24689 -0.03799
				CHANNELS 3 Zrotation Yrotation Xrotation
				JOINT Neck
				{
					OFFSET 0 0 0
					CHANNELS 3 Zrotation Yrotation Xrotation
					JOINT Neck1
					{
						OFFSET -0.11607 1.55844 0.24628
						CHANNELS 3 Zrotation Yrotation Xrotation
						JOINT Head
						{
							OFFSET 0.06877 1.60174 -0.17013
							CHANNELS 3 Zrotation Yrotation Xrotation
							End Site
							{
								OFFSET 0.03358 1.61266 -0.08543
							}
						}
					}
				}
				JOINT LeftShoulder
				{
					OFFSET 0 0 0
					CHANNELS 3 Zrotation Yrotation Xrotation
					JOINT LeftArm
					{
						OFFSET 3.47537 0.55866 -0.72348
						CHANNELS 3 Zrotation Yrotation Xrotation
						JOINT LeftForeArm
						{
							OFFSET 5.38154 -0.00000 0.00000
							CHANNELS 3 Zrotation Yrotation Xrotation
							JOINT LeftHand
							{
								OFFSET 3.33312 -0.00000 0.00000
								CHANNELS 3 Zrotation Yrotation Xrotation
								JOINT LeftFingerBase
								{
									OFFSET 0 0 0
									CHANNELS 3 Zrotation Yrotation Xrotation
									JOINT LeftHandIndex1
									{
										OFFSET 0.71079 -0.00000 0.00000
										CHANNELS 3 Zrotation Yrotation Xrotation
										End Site
										{
											OFFSET 0.57306 -0.00000 0.00000
										}
									}
								}
								JOINT LThumb
								{
									OFFSET 0 0 0
									CHANNELS 3 Zrotation Yrotation Xrotation
									End Site
									{
										OFFSET 0.58181 -0.00000 0.58181
									}
								}
							}
						}
					}
				}
				JOINT RightShoulder
				{
					OFFSET 0 0 0
					CHANNELS 3 Zrotation Yrotation Xrotation
					JOINT RightArm
					{
						OFFSET -3.27844 0.90739 -0.35708
						CHANNELS 3 Zrotation Yrotation Xrotation
						JOINT RightForeArm
						{
							OFFSET -5.16954 -0.00000 0.00000
							CHANNELS 3 Zrotation Yrotation Xrotation
							JOINT RightHand
							{
								OFFSET -3.38287 -0.00000 0.00000
								CHANNELS 3 Zrotation Yrotation Xrotation
								JOINT RightFingerBase
								{
									OFFSET 0 0 0
									CHANNELS 3 Zrotation Yrotation Xrotation
									JOINT RightHandIndex1
									{
										OFFSET -0.81797 -0.00000 0.00000
										CHANNELS 3 Zrotation Yrotation Xrotation
										End Site
										{
											OFFSET -0.65947 -0.00000 0.00000
										}
									}
								}
								JOINT RThumb
								{
									OFFSET 0 0 0
									CHANNELS 3 Zrotation Yrotation Xrotation
									End Site
									{
										OFFSET -0.66953 -0.00000 0.66953
									}
								}
							}
						}
					}
				}
			}
		}
	}
}
MOTION
Frames: 15
Frame Time: .0083333
3.0012 17.0299 -16.7113 0 0 0 0 0 0 -21 0 0 0 0 0 0 0 0 0 0 0 0 0 0 21 0 0 0 0 0 0 0 0 0 0 0 0 0 0 0 0 0 0 0 0 0 0 -16 0 0 21 0 0 11 0 0 0 -8 0 0 0 0 0 0 0 0 0 0 0 0 0 0 0 0 0 0 0 0 8 0 0 0 0 0 0 0 0 0 0 0 0 0 0 0 0 0
3.0012 17.0299 -16.7113 2.0738 -5.1893 -3.5279 0.0000 0.0000 0.0000 -26.4605 2.1933 -12.2865 3.4286 11.3585 33.4987 0.7142 -12.9991 -16.4540 0.0145 -0.7768 -2.1350 0.0000 0.0000 0.0000 13.9645 3.5649 -31.3151 -7.9402 -16.0751 52.3472 -0.7107 -0.0912 -15.9666 -0.0017 0.2645 -0.7268 -1.2992 2.3192 3.2330 0.6252 3.0556 1.0231 1.2454 1.5274 -0.8630 -11.6454 -3.9133 -14.1465 9.9480 -4.9622 20.6043 4.7959 -2.1916 9.3552 -0.0000 -0.0000 0.0000 -95.0234 18.6888 -13.6780 7.8561 -13.3194 -0.9187 -0.0000 -0.0000 26.2144 -10.5769 40.0695 -6.8541 -7.1250 0.0000 -0.0000 -54.6301 61.5712 -26.1764 -0.0000 -0.0000 0.0000 83.1474 38.0670 21.8297 -25.1547 36.3617 -8.3814 0.0000 -0.0000 -27.5778 -18.5168 15.8831 -5.2371 7.1250 -0.0000 -0.0000 6.1500 -13.3470 4.5913
3.0067 17.0467 -16.5558 2.3738 -4.3807 -3.2537 0.0000 0.0000 0.0000 -26.9354 2.0589 -11.4504 3.2497 11.0887 32.5798 0.7239 -13.0776 -16.5634 0.0567 -1.5362 -4.2256 0.0000 0.0000 0.0000 13.3796 3.7366 -32.4435 -7.3864 -15.6489 50.3212 -0.7630 -0.9170 -16.8596 -0.0271 1.0624 -2.9206 -1.4982 2.2012 3.2267 0.3515 2.8879 0.7189 1.0762 1.4477 -1.1616 -11.5804 -4.1065 -14.0917 10.1219 -5.3067 20.7323 4.8060 -2.3313 9.4348 -0.0000 0.0000 0.0000 -94.4474 19.6001 -13.9967 7.7677 -13.1756 -0.8984 -0.0000 -0.0000 27.0913 -10.6199 40.4632 -6.9378 -7.1250 0.0000 -0.0000 -55.2217 61.8064 -26.8630 -0.0000 0.0000 0.0000 82.6940 38.4362 20.9755 -25.4883 36.6989 -8.5800 0.0000 -0.0000 -27.5763 -18.3996 16.2721 -5.3250 7.1250 -0.0000 -0.0000 6.2432 -12.9561 4.7132
3.0227 17.0724 -16.3980 2.5803 -3.2932 -3.2036 0.0000 0.0000 0.0000 -27.3394 1.8423 -10.2511 3.0770 10.8186 31.6707 0.7494 -13.2103 -16.8229 0.1139 -2.1759 -5.9920 0.0000 0.0000 0.0000 12.8142 3.5034 -33.1433 -6.7534 -15.1207 47.9354 -0.7734 -1.5835 -17.2579 -0.0186 0.8817 -2.4234 -1.7186 1.9395 3.1249 0.2993 2.5332 0.7335 1.1657 1.2704 -1.0860 -11.3497 -4.2485 -14.3691 9.7466 -5.4537 20.8858 4.6139 -2.4136 9.5422 0.0000 -0.0000 0.0000 -94.0904 19.9625 -14.4709 7.5322 -12.7918 -0.8455 -0.0000 -0.0000 27.6320 -10.6184 40.7986 -6.9838 -7.1250 0.0000 -0.0000 -55.7004 62.0146 -27.4471 0.0000 -0.0000 0.0000 81.9499 39.0749 20.3168 -25.8786 37.0886 -8.8143 0.0000 -0.0000 -27.6368 -18.5110 16.7658 -5.5165 7.1250 -0.0000 -0.0000 6.1888 -12.4316 4.7398
3.0299 17.0997 -16.2442 2.0424 -2.5535 -3.3293 0.0000 0.0000 0.0000 -26.8391 1.6561 -8.8392 2.9022 10.5350 30.7271 0.7316 -13.4380 -16.7501 0.0485 -1.4208 -3.9075 0.0000 0.0000 0.0000 13.1010 3.7441 -33.3761 -6.1216 -14.5452 45.4678 -0.7637 -2.5809 -17.6377 -0.0084 0.5912 -1.6246 -1.3941 1.7786 3.0774 0.6084 2.3340 0.9600 1.3156 1.1670 -0.8206 -11.6142 -4.2672 -14.3178 9.9283 -5.4365 20.4976 4.7171 -2.4069 9.4086 0.0000 0.0000 0.0000 -94.0327 19.9412 -15.3265 7.3450 -12.4856 -0.8046 -0.0000 -0.0000 28.5685 -10.6866 41.0017 -7.0578 -7.1250 0.0000 -0.0000 -56.0534 62.1212 -27.8206 0.0000 0.0000 0.0000 80.8382 39.8969 19.7545 -26.2661 37.4703 -9.0491 0.0000 -0.0000 -28.1173 -18.6880 16.6765 -5.5441 7.1250 -0.0000 -0.0000 6.0672 -12.5043 4.6364
3.0257 17.1111 -16.0941 1.8080 -1.9931 -3.4785 0.0000 0.0000 0.0000 -26.6255 1.7807 -7.5223 2.7292 10.2431 29.7677 0.7263 -13.5928 -16.7594 0.0661 -1.6590 -4.5641 0.0000 0.0000 0.0000 13.0617 4.2255 -33.5047 -5.4853 -13.9103 42.8794 -0.7452 -3.8287 -18.1360 -0.0152 0.7971 -2.1908 -1.3578 1.7243 3.1910 0.7311 2.2628 1.0996 1.4229 1.1299 -0.7421 -12.0364 -4.3371 -14.1520 10.5833 -5.5740 20.0688 4.9966 -2.4393 9.2776 0.0000 0.0000 0.0000 -93.9747 19.9458 -17.0876 7.2443 -12.3207 -0.7829 -0.0000 -0.0000 30.6995 -10.8250 40.9573 -7.1441 -7.1250 0.0000 -0.0000 -56.1080 62.0570 -27.7746 0.0000 0.0000 0.0000 79.9205 40.5932 19.0453 -26.5579 37.7543 -9.2271 0.0000 -0.0000 -28.8862 -18.6335 16.2855 -5.4016 7.1250 -0.0000 -0.0000 6.0873 -12.9164 4.5992
3.0238 17.1248 -15.9431 2.0987 -1.3599 -3.5582 0.0000 0.0000 0.0000 -26.9781 1.4805 -6.1125 2.5774 9.9772 28.9031 0.7187 -13.7249 -16.7424 0.0446 -1.3626 -3.7470 0.0000 0.0000 0.0000 12.4016 4.6924 -33.6543 -4.8553 -13.2190 40.1938 -0.7159 -5.0992 -18.6386 -0.0102 0.6535 -1.7957 -1.6303 1.7277 3.3876 0.4668 2.2527 0.9810 1.2964 1.1276 -0.9731 -11.8955 -4.4727 -13.7301 10.9605 -5.9185 19.8662 5.0605 -2.5630 9.1797 0.0000 0.0000 0.0000 -93.3288 20.4739 -17.5164 7.2547 -12.3376 -0.7851 -0.0000 -0.0000 31.7141 -11.0322 41.0726 -7.2995 -7.1250 0.0000 -0.0000 -56.4534 62.0719 -28.0267 0.0000 0.0000 0.0000 79.4265 40.7477 18.0207 -26.8456 38.0316 -9.4038 0.0000 -0.0000 -29.3944 -18.8854 16.2330 -5.4626 7.1250 -0.0000 -0.0000 5.9168 -12.9432 4.4656
3.0205 17.1499 -15.7938 1.6459 -0.8927 -3.3355 0.0000 0.0000 0.0000 -26.4923 0.8216 -4.9801 2.4301 9.7096 28.0414 0.6419 -13.9960 -16.1937 0.0257 1.0341 2.8425 0.0000 0.0000 0.0000 12.6078 5.4686 -33.9340 -4.2520 -12.4884 37.4822 -0.6208 -6.7029 -18.8141 -0.0112 0.6827 -1.8761 -1.3144 1.5170 3.2879 0.6519 1.9858 0.9485 1.3232 0.9938 -0.9372 -12.2397 -4.4461 -13.9203 11.2647 -5.8434 19.8070 5.2360 -2.5180 9.2055 0.0000 0.0000 0.0000 -93.3431 20.8679 -17.0569 7.4437 -12.6472 -0.8260 -0.0000 -0.0000 30.9192 -11.0731 41.3970 -7.3739 -7.1250 0.0000 -0.0000 -56.9640 62.2572 -28.6149 0.0000 0.0000 0.0000 78.9385 41.3197 17.7697 -27.0439 38.2210 -9.5263 0.0000 -0.0000 -29.6259 -19.4356 16.7843 -5.8180 7.1250 -0.0000 -0.0000 5.5747 -12.3064 4.2792
3.0158 17.1728 -15.6416 0.9879 -0.4453 -3.1486 0.0000 0.0000 0.0000 -25.8232 1.0756 -4.2452 2.2798 9.4260 27.1373 0.6538 -13.8871 -16.2538 0.0097 0.6361 1.7481 0.0000 0.0000 0.0000 13.0228 6.1379 -34.1451 -3.6891 -11.7347 34.7999 -0.5109 -8.1248 -18.8379 -0.0149 0.7889 -2.1682 -0.8782 1.4521 3.0821 0.9490 1.9183 0.8807 1.3909 0.9598 -0.8853 -12.9638 -4.3831 -12.9693 12.0641 -5.8183 19.0408 5.6356 -2.5094 8.8096 0.0000 0.0000 0.0000 -93.2764 21.1844 -17.4496 7.5055 -12.7482 -0.8396 -0.0000 -0.0000 31.2573 -10.9617 41.4252 -7.3027 -7.1250 0.0000 -0.0000 -56.9108 62.3044 -28.6397 0.0000 0.0000 0.0000 78.0264 41.5869 16.9799 -27.1862 38.3561 -9.6144 0.0000 -0.0000 -29.7807 -19.2864 17.1708 -5.8981 7.1250 -0.0000 -0.0000 5.6926 -11.9212 4.4163
3.0174 17.1883 -15.4847 0.9880 0.1455 -3.2382 0.0000 0.0000 0.0000 -25.9062 1.5309 -3.1997 2.1306 9.1331 26.2125 0.7208 -13.6547 -16.7348 0.0270 -1.0602 -2.9145 0.0000 0.0000 0.0000 12.6498 6.3557 -34.2342 -3.1783 -10.9783 32.2067 -0.4371 -8.9283 -18.7836 -0.0017 0.2680 -0.7364 -1.0074 1.3420 3.0990 1.0095 1.7679 0.9301 1.5315 0.8843 -0.8452 -13.7586 -4.3302 -12.0071 13.0774 -5.8251 18.0412 6.1117 -2.5048 8.3511 0.0000 0.0000 0.0000 -93.0728 21.2634 -18.1403 7.4515 -12.6599 -0.8277 -0.0000 -0.0000 31.9610 -10.8621 41.2443 -7.2098 -7.1250 0.0000 -0.0000 -56.5587 62.2219 -28.2924 0.0000 0.0000 0.0000 77.1928 41.9339 16.3757 -27.2724 38.4378 -9.6680 0.0000 -0.0000 -30.0685 -18.6801 16.6831 -5.5437 7.1250 -0.0000 -0.0000 6.0728 -12.4984 4.6414
3.0122 17.1955 -15.3353 1.0985 0.3947 -3.1521 0.0000 0.0000 0.0000 -26.0399 1.7973 -2.2259 1.9807 8.8257 25.2516 0.7511 -13.5258 -16.9431 0.0770 -1.7895 -4.9242 0.0000 0.0000 0.0000 12.2130 6.8870 -34.5781 -2.7276 -10.2404 29.7588 -0.3123 -9.6938 -18.1438 -0.0223 -0.9643 2.6506 -1.1900 1.3235 3.1115 0.9267 1.7368 0.9016 1.5494 0.8693 -0.8832 -14.8519 -4.5281 -11.4798 14.6520 -6.2037 17.2681 6.8036 -2.6392 8.1415 -0.0000 0.0000 0.0000 -92.5727 21.7407 -15.8278 7.6738 -13.0227 -0.8771 -0.0000 -0.0000 29.7284 -11.0608 41.4587 -7.3745 -7.1250 0.0000 -0.0000 -57.0448 62.2977 -28.7229 -0.0000 0.0000 0.0000 76.7316 42.2467 15.9691 -27.4958 38.6479 -9.8072 0.0000 -0.0000 -30.3744 -18.7403 15.7886 -5.2740 7.1250 -0.0000 -0.0000 5.9964 -13.4213 4.4658
2.9985 17.2006 -15.1886 1.5957 0.3060 -2.7979 0.0000 0.0000 0.0000 -26.5568 2.2181 -1.6160 1.8256 8.4929 24.2214 0.7351 -13.5426 -16.8157 0.0525 -1.4792 -4.0683 0.0000 0.0000 0.0000 11.4026 7.7258 -35.2807 -2.3359 -9.5333 27.4782 -0.1138 -10.6672 -16.8058 -0.0908 -1.9437 5.3502 -1.9253 1.4464 2.9253 0.8354 1.8796 0.7273 1.8642 0.9441 -0.9831 -12.5594 -4.6758 -13.2769 11.6231 -6.1919 19.1045 5.3594 -2.6878 8.9148 -0.0000 -0.0000 0.0000 -92.2159 22.3045 -13.6606 7.9369 -13.4505 -0.9374 -0.0000 -0.0000 27.5750 -11.4146 41.8094 -7.6659 -7.1250 0.0000 -0.0000 -57.8686 62.4109 -29.4411 -0.0000 -0.0000 0.0000 76.2616 42.3121 15.4434 -27.8116 38.9423 -10.0051 0.0000 -0.0000 -30.4546 -19.2647 15.7043 -5.4042 7.1250 -0.0000 -0.0000 5.6407 -13.4524 4.1945
2.9939 17.2053 -15.0320 1.9087 0.4801 -2.5218 0.0000 0.0000 0.0000 -26.8598 2.5400 -0.8804 1.6746 8.1525 23.1782 0.6571 -14.0521 -16.3441 0.0002 0.0969 0.2662 0.0000 0.0000 0.0000 10.8645 7.9628 -36.0695 -1.9938 -8.8532 25.3371 0.0897 -11.6117 -15.2028 -0.0849 -1.8798 5.1736 -2.4056 1.4840 2.6688 0.8223 1.9207 0.6410 2.1239 0.9662 -0.9452 -12.5009 -4.8778 -13.4893 11.3090 -6.4085 19.2834 5.2111 -2.8091 9.0334 0.0000 0.0000 0.0000 -91.8786 22.4227 -13.3500 7.9312 -13.4413 -0.9361 -0.0000 -0.0000 27.3506 -11.4040 41.4239 -7.6015 -7.1250 0.0000 -0.0000 -57.2861 62.1842 -28.7406 0.0000 0.0000 0.0000 75.5307 42.3447 14.8096 -27.9804 39.0982 -10.1113 0.0000 -0.0000 -30.3982 -19.4938 16.5590 -5.7611 7.1250 -0.0000 -0.0000 5.5252 -12.5347 4.2144
2.9954 17.2108 -14.8764 1.7483 0.8510 -2.3900 0.0000 0.0000 0.0000 -26.6106 3.0403 -0.0362 1.5271 7.8024 22.1154 0.6070 -14.5289 -16.1091 0.0001 -0.0752 -0.2067 0.0000 0.0000 0.0000 10.9535 7.8521 -36.7452 -1.6995 -8.2100 23.3538 0.2672 -12.4408 -13.5840 -0.0110 -0.6781 1.8636 -2.2277 1.4687 2.5103 0.8175 1.9086 0.6417 2.0239 0.9586 -0.8493 -12.3016 -4.9879 -13.7807 11.1283 -6.5536 19.5261 5.0963 -2.8712 9.1774 0.0000 0.0000 0.0000 -91.3441 22.2440 -13.5580 7.8347 -13.2846 -0.9138 -0.0000 -0.0000 27.7854 -11.0679 40.5799 -7.2517 -7.1250 0.0000 -0.0000 -55.7745 61.7604 -27.1690 0.0000 0.0000 0.0000 74.9292 42.4321 14.0331 -28.0811 39.1908 -10.1749 0.0000 -0.0000 -30.2573 -19.1702 16.6749 -5.6968 7.1250 -0.0000 -0.0000 5.7461 -12.4512 4.3947
2.9965 17.2230 -14.7279 2.0721 1.2329 -2.1807 0.0000 0.0000 0.0000 -26.9160 3.6431 0.6828 1.3826 7.4401 21.0259 0.5927 -14.6925 -16.0557 0.0274 -1.0685 -2.9374 0.0000 0.0000 0.0000 10.3537 8.0166 -37.3837 -1.4485 -7.6080 21.5296 0.4048 -13.2078 -12.3656 -0.0050 0.4583 -1.2594 -2.5648 1.4398 2.4354 0.6858 1.8613 0.5420 2.0798 0.9374 -0.9134 -12.2743 -5.0085 -13.7042 11.1570 -6.6019 19.4988 5.0956 -2.8910 9.1602 -0.0000 0.0000 0.0000 -91.0974 22.1974 -13.9767 7.9620 -13.4912 -0.9432 -0.0000 -0.0000 28.2038 -11.2157 40.2834 -7.3059 -7.1250 0.0000 -0.0000 -55.4826 61.5378 -26.6888 -0.0000 0.0000 0.0000 74.5270 42.4615 13.4511 -28.1692 39.2716 -10.2306 0.0000 -0.0000 -30.2482 -18.8478 16.1539 -5.4252 7.1250 -0.0000 -0.0000 5.9388 -13.0296 4.4716
